<svg width="598" height="128" viewBox="0 0 598 128" fill="none" xmlns="http://www.w3.org/2000/svg">
<path d="M10.3818 83.9057L14.2607 61.7556H76.6654L72.7865 83.9057H10.3818ZM65.7132 34.494H90.4697L76.7795 114.007H52.0229L65.7132 34.494ZM13.6902 34.494H38.4468L24.7565 114.007H0L13.6902 34.494Z" fill="white"/>
<path d="M105.493 34.494H130.82L117.13 114.007H91.8031L105.493 34.494Z" fill="white"/>
<path d="M145.824 34.494H171.722L158.031 114.007H132.134L145.824 34.494ZM194.767 34.494H224.201L186.895 72.2059L211.423 114.007H182.446L158.031 71.9788L194.767 34.494Z" fill="white"/>
<path d="M384.494 100.376L387.688 82.4291H429.101L425.907 100.376H384.494ZM410.619 67.208L397.728 89.1309L398.64 94.924L387.688 113.569H359.053L416.552 34.608L447.063 113.569H419.682L414.27 95.492L416.552 89.1309L410.619 67.208Z" fill="white"/>
<path d="M485.669 78.2262L476.006 113.569H449.424L478.063 34.2588L505.063 69.8205L547.275 34.2588V113.569H521.035L522.518 79.0214L500.043 103.33L485.669 78.2262Z" fill="white"/>
<path d="M571.693 34.2588H597.02L583.251 113.569H557.924L571.693 34.2588Z" fill="white"/>
<path d="M310.071 82.997C311.212 85.3445 312.543 87.4649 314.064 89.3581C315.585 91.2512 317.334 92.7279 319.312 93.7881C321.289 94.8483 323.495 95.3784 325.929 95.3784C327.146 95.3784 328.324 95.2269 329.465 94.924C330.682 94.5454 331.709 94.0153 332.546 93.3337C333.458 92.5765 334.029 91.6299 334.257 90.494C334.637 89.0552 334.333 87.8814 333.344 86.9727C332.355 86.064 330.834 85.1931 328.781 84.3601C326.803 83.4514 324.446 82.4669 321.708 81.4068C319.426 80.4223 317.144 79.1728 314.862 77.6583C312.657 76.068 310.641 74.2127 308.816 72.0923C307.067 69.8963 305.736 67.4351 304.823 64.709C303.91 61.9071 303.682 58.7644 304.138 55.281C304.899 50.0558 305.393 47.1408 308.816 43.5816C312.238 40.0225 313.874 39.038 318.741 37.2206C323.685 35.4031 328.819 34.5323 334.143 34.608C339.239 34.608 343.65 35.441 347.377 37.107C351.104 38.6972 354.222 40.8555 356.732 43.5816C359.318 46.2321 361.295 49.1854 362.664 52.4417L347.377 59.2566C346.464 57.6664 345.437 56.3412 344.296 55.281C343.232 54.1451 342.053 53.3121 340.76 52.782C339.467 52.1762 338.022 51.8733 336.425 51.8733C335.436 51.8733 334.409 52.0247 333.344 52.3276C332.279 52.5548 331.367 52.9713 330.606 53.5771C329.846 54.1072 329.351 54.8266 329.123 55.7353C328.819 56.947 329.123 58.045 330.036 59.0295C330.948 59.9382 332.203 60.7712 333.801 61.5284C335.398 62.21 337.109 62.8537 338.934 63.4595C340.836 63.9896 342.547 64.5575 344.068 65.1633C348.023 66.6021 351.294 68.571 353.88 71.07C356.465 73.4933 358.291 76.3331 359.356 79.5893C360.497 82.7698 361.834 86.499 361.301 90.4367C360.465 96.192 359.698 98.2062 356.047 102.144C352.473 106.006 348.099 108.922 342.927 110.89C337.832 112.935 332.706 113.569 327.154 113.569C321.906 113.493 316.695 113.183 312.283 111.366C307.948 109.624 304.405 106.877 301.286 103.621C298.168 100.364 295.886 96.616 294.441 92.3753L310.071 82.997Z" fill="white"/>
<path d="M285.149 35.9099L304.015 35.6409L316.781 36.0479L315.943 36.1937C314.413 36.2168 312.667 36.25 310.798 36.2855C310.797 36.2855 310.795 36.2856 310.794 36.2856H310.793C300.969 36.4724 287.786 36.723 285.149 35.9099Z" fill="#0B8AFC"/>
<path d="M316.781 36.0479L320.89 36.1789C319.871 36.1481 318.129 36.1606 315.943 36.1937L316.781 36.0479Z" fill="#0B8AFC"/>
<path fill-rule="evenodd" clip-rule="evenodd" d="M258.947 2.6899V5.31254L251.245 6.45573C246.957 7.1282 243.146 7.80065 242.669 8.06964C242.272 8.27138 241.002 8.47314 239.89 8.54039C237.905 8.67488 222.343 11.2975 219.802 11.9027C219.087 12.1045 218.611 12.5752 218.928 12.9114C219.167 13.3149 217.737 13.5167 215.117 13.3822C215.117 13.3822 209.138 13.1014 209.321 15.1305C209.455 16.616 212.735 17.6187 212.735 17.6187H218.373C221.787 17.6187 223.851 17.8877 223.613 18.224C222.978 19.1654 228.06 19.0309 232.585 18.0895C235.523 17.4842 235.92 17.2152 234.65 16.8118C233.856 16.5428 235.603 16.4083 238.699 16.4755C241.796 16.61 246.798 16.4755 249.816 16.2065C250.751 16.1308 251.597 16.0587 252.363 15.9933L252.372 15.9926L252.374 15.9924C256.729 15.621 258.497 15.4702 259.281 16.1425C259.818 16.6021 259.894 17.4463 260.023 18.8674C260.056 19.2214 260.091 19.6111 260.138 20.0396C260.376 22.595 260.852 27.0333 261.249 29.9922C261.567 32.9511 261.805 35.5064 261.646 35.6409C261.567 35.7082 258.47 36.1117 254.818 36.4479C251.165 36.7841 247.672 37.2549 247.037 37.5238C245.766 37.9273 245.369 37.9946 240.129 38.7343C236.873 39.205 235.92 38.7343 237.429 37.3221C238.858 35.9772 239.89 32.2113 239.096 31.0009C238.62 30.2612 238.223 28.9835 238.144 28.042C237.985 26.7643 237.667 26.4953 236.714 26.9661C236.079 27.2351 233.776 27.504 231.712 27.504C227.107 27.5713 226.392 27.9075 226.392 30.0594C226.392 31.0681 225.916 31.6734 225.201 31.6734C224.01 31.6734 223.772 32.5476 223.693 38.3308L223.613 41.3569L219.167 42.0966L214.72 42.9036C214.72 42.9036 209.894 44.4429 207.098 45.8961C204.6 47.194 201.143 49.7628 201.143 49.7628C201.46 50.5698 213.212 51.1077 218.373 50.5025L222.581 50.0318L222.105 53.1252C220.834 61.4638 218.373 84.0588 217.261 97.2392C217.179 98.2498 217.102 99.2009 217.029 100.097L217.027 100.119L217.026 100.129C216.115 111.345 215.907 113.905 215.959 116.461C215.975 117.217 216.013 117.973 216.063 118.952L216.07 119.094L216.229 122.793L217.102 120.439L217.976 118.086L218.452 120.439C219.005 122.581 219.008 122.525 219.164 119.344L219.167 119.296C219.167 117.413 219.564 115.665 219.961 115.463C220.278 115.261 221.072 113.311 221.549 111.092C222.025 108.873 222.899 106.99 223.375 106.856C223.851 106.721 225.201 101.61 226.392 95.558C227.583 89.4385 228.774 83.7225 229.012 82.7811C229.251 81.8396 229.886 78.679 230.362 75.7201C230.839 72.7613 231.712 70.0041 232.268 69.6679C232.824 69.2644 233.697 66.8435 234.253 64.2881C235.841 56.9582 238.461 49.1576 239.414 49.0903C239.67 49.0541 240.433 49.018 241.416 48.9713L241.417 48.9712L241.417 48.9712L241.418 48.9712L241.419 48.9712L241.421 48.9711L241.422 48.971C242.265 48.931 243.27 48.8833 244.257 48.8214C246.481 48.7541 249.657 48.3506 251.404 47.9471C256.247 46.8712 262.679 46.266 263.155 46.9384C263.314 47.2074 263.79 49.8973 264.028 52.8562C264.346 55.815 265.14 62.0018 265.775 66.6418C267.284 77.6031 267.443 78.7463 268.554 85.1347C268.81 86.7207 269.065 88.3647 269.271 89.6938L269.272 89.6957C269.45 90.8453 269.592 91.7591 269.666 92.1957C271.81 105.511 272.763 110.151 273.398 110.689C273.874 111.092 274.033 110.756 273.715 109.68C272.286 103.493 271.254 88.6316 272.366 90.1783C272.763 90.649 273.398 93.4061 273.715 96.2305C274.43 103.426 275.224 103.897 275.065 97.0374C274.827 91.2542 274.906 91.187 276.097 93.4734C276.733 94.751 277.765 98.9876 278.4 102.888C279.273 108.806 281.338 119.632 283.085 127.837C283.243 128.778 283.323 125.55 283.164 120.776C282.846 113.042 282.926 112.504 283.64 116.405C284.037 118.758 284.832 120.91 285.308 121.179C285.784 121.448 286.42 122.793 286.817 124.205C287.293 126.29 287.372 125.685 287.293 121.65L287.134 116.405L285.149 95.7597C284.276 95.02 283.085 84.7985 283.958 84.7985C284.355 84.7985 284.355 84.5295 283.799 84.2605C283.243 83.9915 282.846 83.1846 282.926 82.4448C283.005 80.2257 281.973 73.0975 279.512 58.6394C278.241 51.1077 277.209 44.8538 277.209 44.7193C277.209 44.5175 280.782 44.0468 283.799 43.8451L286.023 43.7778C291.669 42.4921 311.794 40.7669 323.392 39.7726L323.394 39.7725L323.401 39.7719C325.926 39.5554 328.046 39.3737 329.524 39.2386L332.8 38.7343L331.637 38.4478L323.038 38.5992L329.524 37.9274C329.524 37.9274 327.431 36.8759 325.951 36.5152C324.046 36.0507 320.89 36.1789 320.89 36.1789L309.272 37.3541L315.943 36.1937C314.413 36.2168 312.667 36.25 310.798 36.2855L310.794 36.2856H310.793C300.969 36.4724 287.786 36.723 285.149 35.9099C284.276 36.6496 275.621 37.1876 275.621 36.5151C275.621 36.1117 276.574 35.6409 277.844 35.5064C279.909 35.2374 279.909 35.2374 277.527 35.103C275.065 35.0357 274.986 34.9012 274.033 30.7991C273.477 28.5128 272.921 25.8901 272.842 24.9487C272.683 24.0072 272.366 22.6623 272.127 21.9225C272.008 21.5527 271.83 20.9474 271.631 20.2749L271.631 20.2739L271.63 20.2719C271.432 19.6003 271.214 18.8618 271.016 18.224L270.38 15.8703L277.209 14.7944C280.941 14.1891 284.355 13.7856 284.752 13.8529C284.752 13.8529 291.799 12.1717 291.799 11.2303C291.799 10.2888 291.204 9.81808 291.204 9.81808C291.204 9.81808 294.976 9.82747 296.563 8.57397C298.228 7.25889 298.35 3.87373 298.35 3.87373C296.799 3.71618 296.604 3.45481 296.821 3.02612C297.218 2.1519 296.98 2.01742 295.63 2.35365C293.566 2.95888 292.613 1.74844 294.439 0.739731C295.709 0.0672614 295.63 8.7125e-06 293.883 0.336244C292.772 0.537985 286.023 1.54669 278.876 2.5554C267.284 4.16933 265.855 4.30383 264.981 3.36237C264.505 2.75715 262.917 1.81569 261.567 1.14322L258.947 -7.15256e-07V2.6899ZM237.508 10.1543C237.508 10.4906 236.873 10.8268 236.159 10.8268C234.968 10.8268 234.888 10.6923 235.92 10.1543C237.429 9.34736 237.508 9.34736 237.508 10.1543ZM284.355 12.1717C283.085 12.8442 279.035 13.1132 279.75 12.508C279.988 12.3062 281.02 11.97 281.973 11.8355C282.926 11.701 283.958 11.3648 284.196 11.163C284.435 10.9613 284.831 10.9613 285.07 11.2303C285.308 11.432 284.99 11.8355 284.355 12.1717ZM263.711 20.7121C263.711 24.6124 262.758 23.94 262.282 19.8379C262.123 17.7532 262.282 16.879 262.837 17.2153C263.314 17.417 263.711 19.0309 263.711 20.7121ZM263.473 27.4368C263.234 28.1093 263.076 27.5713 263.076 26.2936C263.076 25.0159 263.234 24.4779 263.473 25.0831C263.631 25.7556 263.631 26.8316 263.473 27.4368ZM264.267 31.1354C264.028 31.6061 263.87 31.2699 263.87 30.3284C263.87 29.387 264.028 29.0507 264.267 29.4542C264.425 29.9249 264.425 30.7319 264.267 31.1354ZM260.932 37.0531C261.17 37.3894 261.011 37.7256 260.614 37.7256C260.138 37.7256 259.741 37.3894 259.741 37.0531C259.741 36.6496 259.9 36.3806 260.058 36.3806C260.297 36.3806 260.694 36.6496 260.932 37.0531ZM236.953 49.5611C237.191 49.8301 236.953 50.7715 236.397 51.7802C235.762 52.7217 235.047 54.8063 234.729 56.353C234.412 57.9669 233.935 59.2446 233.618 59.2446C233.221 59.2446 233.538 56.9582 234.173 54.2011C235.285 49.4266 235.762 48.6196 236.953 49.5611ZM295.505 39.5953H302.263L291.799 40.0934L295.505 39.5953ZM324.29 37.6031L321.286 37.8521L320.535 38.1012H321.536L324.29 37.6031Z" fill="#0B8AFC"/>
</svg>
